<svg xmlns="http://www.w3.org/2000/svg" xmlns:xlink="http://www.w3.org/1999/xlink" zoomAndPan="magnify" preserveAspectRatio="xMidYMid meet" version="1.0" viewBox="36.17 153.24 279.69 55.21"><defs><g/><clipPath id="2035adbc6e"><path d="M 77.359375 153.214844 L 117.109375 153.214844 L 117.109375 208.714844 L 77.359375 208.714844 Z M 77.359375 153.214844 " clip-rule="nonzero"/></clipPath><clipPath id="272b8d6ff0"><path d="M 36.167969 153.214844 L 75.917969 153.214844 L 75.917969 208.46875 L 36.167969 208.46875 Z M 36.167969 153.214844 " clip-rule="nonzero"/></clipPath></defs><g clip-path="url(#2035adbc6e)"><path fill="#ff7f57" d="M 117.402344 169.800781 L 117.402344 181.40625 L 101.058594 181.40625 C 100.660156 181.40625 100.265625 181.445312 99.878906 181.523438 C 99.488281 181.601562 99.109375 181.714844 98.746094 181.867188 C 98.378906 182.019531 98.03125 182.207031 97.699219 182.425781 C 97.371094 182.648438 97.066406 182.898438 96.785156 183.179688 C 96.503906 183.457031 96.253906 183.765625 96.03125 184.09375 C 95.8125 184.421875 95.625 184.773438 95.472656 185.136719 C 95.320312 185.503906 95.207031 185.882812 95.128906 186.273438 C 95.050781 186.660156 95.011719 187.054688 95.011719 187.449219 L 95.011719 190.796875 C 95.011719 200.53125 87.097656 208.445312 77.359375 208.445312 C 81.753906 204.054688 83.40625 199.1875 83.40625 190.800781 L 83.40625 187.453125 C 83.40625 177.71875 91.320312 169.800781 101.058594 169.800781 Z M 105.59375 153.238281 C 90.882812 154.425781 83.667969 164.117188 83.667969 173.523438 L 83.660156 173.578125 C 88.082031 168.242188 94.757812 164.839844 102.210938 164.839844 L 117.402344 164.839844 L 117.402344 153.238281 Z M 105.59375 153.238281 " fill-opacity="1" fill-rule="nonzero"/></g><g clip-path="url(#272b8d6ff0)"><path fill="#000000" d="M 76.210938 191.882812 L 76.210938 180.28125 L 59.867188 180.28125 C 59.46875 180.277344 59.074219 180.238281 58.6875 180.164062 C 58.296875 180.085938 57.917969 179.96875 57.554688 179.816406 C 57.1875 179.664062 56.839844 179.480469 56.507812 179.257812 C 56.179688 179.039062 55.875 178.789062 55.59375 178.507812 C 55.3125 178.226562 55.0625 177.921875 54.839844 177.589844 C 54.621094 177.261719 54.433594 176.914062 54.28125 176.546875 C 54.128906 176.179688 54.015625 175.800781 53.9375 175.414062 C 53.859375 175.023438 53.820312 174.628906 53.820312 174.234375 L 53.820312 170.886719 C 53.820312 161.15625 45.90625 153.238281 36.167969 153.238281 C 40.5625 157.632812 42.214844 162.496094 42.214844 170.886719 L 42.214844 174.230469 C 42.214844 183.964844 50.128906 191.882812 59.867188 191.882812 Z M 64.402344 208.449219 C 49.691406 207.257812 42.476562 197.566406 42.476562 188.160156 L 42.46875 188.105469 C 46.890625 193.441406 53.566406 196.84375 61.015625 196.84375 L 76.210938 196.84375 L 76.210938 208.449219 Z M 64.402344 208.449219 " fill-opacity="1" fill-rule="nonzero"/></g><g fill="#000000" fill-opacity="1"><g transform="translate(133.270616, 176.013548)"><g><path d="M 9.328125 -12.96875 L 13.8125 -21.96875 L 18.640625 -21.96875 L 11.484375 -8.1875 L 11.484375 0 L 7 0 L 7 -8.1875 L -0.15625 -21.96875 L 4.828125 -21.96875 Z M 9.328125 -12.96875 "/></g></g></g><g fill="#000000" fill-opacity="1"><g transform="translate(151.762001, 176.013548)"><g><path d="M 11.828125 0.40625 C 9.910156 0.40625 8.125 -0.0976562 6.46875 -1.109375 C 4.8125 -2.128906 3.488281 -3.507812 2.5 -5.25 C 1.519531 -7 1.03125 -8.910156 1.03125 -10.984375 C 1.03125 -13.054688 1.519531 -14.96875 2.5 -16.71875 C 3.488281 -18.46875 4.8125 -19.847656 6.46875 -20.859375 C 8.125 -21.867188 9.910156 -22.375 11.828125 -22.375 C 13.753906 -22.375 15.546875 -21.867188 17.203125 -20.859375 C 18.859375 -19.847656 20.175781 -18.46875 21.15625 -16.71875 C 22.132812 -14.96875 22.625 -13.054688 22.625 -10.984375 C 22.625 -8.910156 22.132812 -7 21.15625 -5.25 C 20.175781 -3.507812 18.859375 -2.128906 17.203125 -1.109375 C 15.546875 -0.0976562 13.753906 0.40625 11.828125 0.40625 Z M 11.828125 -3.921875 C 12.960938 -3.921875 14.007812 -4.226562 14.96875 -4.84375 C 15.9375 -5.46875 16.707031 -6.316406 17.28125 -7.390625 C 17.851562 -8.472656 18.140625 -9.671875 18.140625 -10.984375 C 18.140625 -12.304688 17.851562 -13.503906 17.28125 -14.578125 C 16.707031 -15.660156 15.9375 -16.507812 14.96875 -17.125 C 14.007812 -17.738281 12.960938 -18.046875 11.828125 -18.046875 C 10.703125 -18.046875 9.65625 -17.738281 8.6875 -17.125 C 7.726562 -16.507812 6.960938 -15.660156 6.390625 -14.578125 C 5.816406 -13.503906 5.53125 -12.304688 5.53125 -10.984375 C 5.53125 -9.671875 5.816406 -8.472656 6.390625 -7.390625 C 6.960938 -6.316406 7.726562 -5.46875 8.6875 -4.84375 C 9.65625 -4.226562 10.703125 -3.921875 11.828125 -3.921875 Z M 11.828125 -3.921875 "/></g></g></g><g fill="#000000" fill-opacity="1"><g transform="translate(175.433485, 176.013548)"><g><path d="M 10.890625 0.40625 C 9.148438 0.40625 7.601562 0.0195312 6.25 -0.75 C 4.90625 -1.53125 3.867188 -2.59375 3.140625 -3.9375 C 2.410156 -5.289062 2.046875 -6.789062 2.046875 -8.4375 L 2.046875 -21.96875 L 6.53125 -21.96875 L 6.53125 -8.4375 C 6.53125 -7.125 6.914062 -6.039062 7.6875 -5.1875 C 8.46875 -4.34375 9.535156 -3.921875 10.890625 -3.921875 C 12.253906 -3.921875 13.320312 -4.34375 14.09375 -5.1875 C 14.863281 -6.039062 15.25 -7.125 15.25 -8.4375 L 15.25 -21.96875 L 19.75 -21.96875 L 19.75 -8.4375 C 19.75 -6.789062 19.378906 -5.289062 18.640625 -3.9375 C 17.910156 -2.59375 16.867188 -1.53125 15.515625 -0.75 C 14.171875 0.0195312 12.628906 0.40625 10.890625 0.40625 Z M 10.890625 0.40625 "/></g></g></g><g fill="#000000" fill-opacity="1"><g transform="translate(197.221295, 176.013548)"><g><path d="M 16.078125 -7.59375 L 16.078125 -21.96875 L 20.40625 -21.96875 L 20.40625 0 L 16.296875 0 L 6.53125 -14.375 L 6.53125 0 L 2.203125 0 L 2.203125 -21.96875 L 6.3125 -21.96875 Z M 16.078125 -7.59375 "/></g></g></g><g fill="#000000" fill-opacity="1"><g transform="translate(219.825366, 176.013548)"><g><path d="M 12.046875 -11.578125 L 22.09375 -11.578125 L 22.09375 0 L 19.46875 0 L 18.671875 -2.890625 C 18.003906 -1.984375 17.0625 -1.207031 15.84375 -0.5625 C 14.632812 0.0820312 13.296875 0.40625 11.828125 0.40625 C 9.910156 0.40625 8.125 -0.0976562 6.46875 -1.109375 C 4.8125 -2.128906 3.488281 -3.507812 2.5 -5.25 C 1.519531 -7 1.03125 -8.910156 1.03125 -10.984375 C 1.03125 -13.054688 1.519531 -14.96875 2.5 -16.71875 C 3.488281 -18.46875 4.8125 -19.847656 6.46875 -20.859375 C 8.125 -21.867188 9.910156 -22.375 11.828125 -22.375 C 13.585938 -22.375 15.171875 -22.007812 16.578125 -21.28125 C 17.992188 -20.550781 19.144531 -19.597656 20.03125 -18.421875 C 20.925781 -17.253906 21.507812 -16.039062 21.78125 -14.78125 L 17.109375 -14.78125 C 16.796875 -15.625 16.175781 -16.378906 15.25 -17.046875 C 14.332031 -17.710938 13.191406 -18.046875 11.828125 -18.046875 C 10.703125 -18.046875 9.65625 -17.738281 8.6875 -17.125 C 7.726562 -16.507812 6.960938 -15.660156 6.390625 -14.578125 C 5.816406 -13.503906 5.53125 -12.304688 5.53125 -10.984375 C 5.53125 -9.671875 5.816406 -8.472656 6.390625 -7.390625 C 6.960938 -6.316406 7.726562 -5.46875 8.6875 -4.84375 C 9.65625 -4.226562 10.703125 -3.921875 11.828125 -3.921875 C 13.359375 -3.921875 14.585938 -4.316406 15.515625 -5.109375 C 16.453125 -5.910156 17.054688 -6.789062 17.328125 -7.75 L 12.046875 -7.75 Z M 12.046875 -11.578125 "/></g></g></g><g fill="#ff7f57" fill-opacity="1"><g transform="translate(133.270616, 206.763546)"><g><path d="M 17.046875 -21.96875 L 17.046875 -17.640625 L 6.6875 -17.640625 L 6.6875 -12.375 L 15.59375 -12.375 L 15.59375 -8.21875 L 6.6875 -8.21875 L 6.6875 0 L 2.203125 0 L 2.203125 -21.96875 Z M 17.046875 -21.96875 "/></g></g></g><g fill="#ff7f57" fill-opacity="1"><g transform="translate(151.228294, 206.763546)"><g><path d="M 11.828125 0.40625 C 9.910156 0.40625 8.125 -0.0976562 6.46875 -1.109375 C 4.8125 -2.128906 3.488281 -3.507812 2.5 -5.25 C 1.519531 -7 1.03125 -8.910156 1.03125 -10.984375 C 1.03125 -13.054688 1.519531 -14.96875 2.5 -16.71875 C 3.488281 -18.46875 4.8125 -19.847656 6.46875 -20.859375 C 8.125 -21.867188 9.910156 -22.375 11.828125 -22.375 C 13.753906 -22.375 15.546875 -21.867188 17.203125 -20.859375 C 18.859375 -19.847656 20.175781 -18.46875 21.15625 -16.71875 C 22.132812 -14.96875 22.625 -13.054688 22.625 -10.984375 C 22.625 -8.910156 22.132812 -7 21.15625 -5.25 C 20.175781 -3.507812 18.859375 -2.128906 17.203125 -1.109375 C 15.546875 -0.0976562 13.753906 0.40625 11.828125 0.40625 Z M 11.828125 -3.921875 C 12.960938 -3.921875 14.007812 -4.226562 14.96875 -4.84375 C 15.9375 -5.46875 16.707031 -6.316406 17.28125 -7.390625 C 17.851562 -8.472656 18.140625 -9.671875 18.140625 -10.984375 C 18.140625 -12.304688 17.851562 -13.503906 17.28125 -14.578125 C 16.707031 -15.660156 15.9375 -16.507812 14.96875 -17.125 C 14.007812 -17.738281 12.960938 -18.046875 11.828125 -18.046875 C 10.703125 -18.046875 9.65625 -17.738281 8.6875 -17.125 C 7.726562 -16.507812 6.960938 -15.660156 6.390625 -14.578125 C 5.816406 -13.503906 5.53125 -12.304688 5.53125 -10.984375 C 5.53125 -9.671875 5.816406 -8.472656 6.390625 -7.390625 C 6.960938 -6.316406 7.726562 -5.46875 8.6875 -4.84375 C 9.65625 -4.226562 10.703125 -3.921875 11.828125 -3.921875 Z M 11.828125 -3.921875 "/></g></g></g><g fill="#ff7f57" fill-opacity="1"><g transform="translate(174.899779, 206.763546)"><g><path d="M 10.890625 0.40625 C 9.148438 0.40625 7.601562 0.0195312 6.25 -0.75 C 4.90625 -1.53125 3.867188 -2.59375 3.140625 -3.9375 C 2.410156 -5.289062 2.046875 -6.789062 2.046875 -8.4375 L 2.046875 -21.96875 L 6.53125 -21.96875 L 6.53125 -8.4375 C 6.53125 -7.125 6.914062 -6.039062 7.6875 -5.1875 C 8.46875 -4.34375 9.535156 -3.921875 10.890625 -3.921875 C 12.253906 -3.921875 13.320312 -4.34375 14.09375 -5.1875 C 14.863281 -6.039062 15.25 -7.125 15.25 -8.4375 L 15.25 -21.96875 L 19.75 -21.96875 L 19.75 -8.4375 C 19.75 -6.789062 19.378906 -5.289062 18.640625 -3.9375 C 17.910156 -2.59375 16.867188 -1.53125 15.515625 -0.75 C 14.171875 0.0195312 12.628906 0.40625 10.890625 0.40625 Z M 10.890625 0.40625 "/></g></g></g><g fill="#ff7f57" fill-opacity="1"><g transform="translate(196.687588, 206.763546)"><g><path d="M 16.078125 -7.59375 L 16.078125 -21.96875 L 20.40625 -21.96875 L 20.40625 0 L 16.296875 0 L 6.53125 -14.375 L 6.53125 0 L 2.203125 0 L 2.203125 -21.96875 L 6.3125 -21.96875 Z M 16.078125 -7.59375 "/></g></g></g><g fill="#ff7f57" fill-opacity="1"><g transform="translate(219.291659, 206.763546)"><g><path d="M 2.203125 0 L 2.203125 -21.96875 L 9.484375 -21.96875 C 11.453125 -21.96875 13.265625 -21.472656 14.921875 -20.484375 C 16.585938 -19.503906 17.90625 -18.171875 18.875 -16.484375 C 19.851562 -14.804688 20.34375 -12.972656 20.34375 -10.984375 C 20.34375 -8.972656 19.847656 -7.128906 18.859375 -5.453125 C 17.878906 -3.785156 16.554688 -2.457031 14.890625 -1.46875 C 13.234375 -0.488281 11.429688 0 9.484375 0 Z M 9.484375 -4.328125 C 10.609375 -4.328125 11.65625 -4.617188 12.625 -5.203125 C 13.601562 -5.796875 14.382812 -6.597656 14.96875 -7.609375 C 15.5625 -8.628906 15.859375 -9.753906 15.859375 -10.984375 C 15.859375 -12.222656 15.5625 -13.347656 14.96875 -14.359375 C 14.382812 -15.378906 13.601562 -16.179688 12.625 -16.765625 C 11.65625 -17.347656 10.609375 -17.640625 9.484375 -17.640625 L 6.6875 -17.640625 L 6.6875 -4.328125 Z M 9.484375 -4.328125 "/></g></g></g><g fill="#ff7f57" fill-opacity="1"><g transform="translate(240.671338, 206.763546)"><g><path d="M 6.6875 -9.140625 L 6.6875 -4.265625 L 17.546875 -4.265625 L 17.546875 0 L 2.203125 0 L 2.203125 -21.96875 L 17.234375 -21.96875 L 17.234375 -17.703125 L 6.6875 -17.703125 L 6.6875 -13.28125 L 16.046875 -13.28125 L 16.046875 -9.140625 Z M 6.6875 -9.140625 "/></g></g></g><g fill="#ff7f57" fill-opacity="1"><g transform="translate(259.382484, 206.763546)"><g><path d="M 14 0 L 9.609375 -7.90625 L 6.6875 -7.90625 L 6.6875 0 L 2.203125 0 L 2.203125 -21.96875 L 11.109375 -21.96875 C 12.515625 -21.96875 13.78125 -21.664062 14.90625 -21.0625 C 16.039062 -20.457031 16.929688 -19.613281 17.578125 -18.53125 C 18.222656 -17.457031 18.546875 -16.238281 18.546875 -14.875 C 18.546875 -13.476562 18.140625 -12.21875 17.328125 -11.09375 C 16.515625 -9.976562 15.40625 -9.144531 14 -8.59375 L 19.1875 0 Z M 6.6875 -17.703125 L 6.6875 -11.984375 L 10.984375 -11.984375 C 11.867188 -11.984375 12.601562 -12.25 13.1875 -12.78125 C 13.769531 -13.320312 14.0625 -14.007812 14.0625 -14.84375 C 14.0625 -15.6875 13.769531 -16.375 13.1875 -16.90625 C 12.601562 -17.4375 11.867188 -17.703125 10.984375 -17.703125 Z M 6.6875 -17.703125 "/></g></g></g><g fill="#ff7f57" fill-opacity="1"><g transform="translate(279.349413, 206.763546)"><g><path d="M 3.609375 0.40625 C 2.898438 0.40625 2.300781 0.164062 1.8125 -0.3125 C 1.332031 -0.789062 1.09375 -1.390625 1.09375 -2.109375 C 1.09375 -2.816406 1.332031 -3.410156 1.8125 -3.890625 C 2.300781 -4.367188 2.898438 -4.609375 3.609375 -4.609375 C 4.316406 -4.609375 4.910156 -4.367188 5.390625 -3.890625 C 5.878906 -3.410156 6.125 -2.816406 6.125 -2.109375 C 6.125 -1.390625 5.878906 -0.789062 5.390625 -0.3125 C 4.910156 0.164062 4.316406 0.40625 3.609375 0.40625 Z M 3.609375 0.40625 "/></g></g></g><g fill="#ff7f57" fill-opacity="1"><g transform="translate(286.570154, 206.763546)"><g><path d="M 6.6875 0 L 2.203125 0 L 2.203125 -21.96875 L 6.6875 -21.96875 Z M 6.6875 0 "/></g></g></g><g fill="#ff7f57" fill-opacity="1"><g transform="translate(295.454809, 206.763546)"><g><path d="M 16.078125 -7.59375 L 16.078125 -21.96875 L 20.40625 -21.96875 L 20.40625 0 L 16.296875 0 L 6.53125 -14.375 L 6.53125 0 L 2.203125 0 L 2.203125 -21.96875 L 6.3125 -21.96875 Z M 16.078125 -7.59375 "/></g></g></g></svg>